USFL
nRows=120
nColumns=2
inDegrees=yes
endheader
time	med_gas_r	
2.64819	 40.697444	
2.71976	 40.668851	
2.79133	 40.658168	
2.8629	 40.653152	
2.93448	 40.662288	
3.00605	 40.674921	
3.07762	 40.613208	
3.14919	 40.522313	
3.22077	 40.589801	
3.29234	 40.543509	
3.36391	 40.493902	
3.43548	 40.499785	
3.50706	 40.456820	
3.57863	 40.429880	
3.6502	 40.447432	
3.72177	 40.493643	
3.79335	 40.499658	
3.86492	 40.482971	
3.93649	 40.489102	
4.00806	 40.458767	
4.07964	 40.491564	
4.15121	 40.489254	
4.22278	 40.504013	
4.29435	 40.510151	
4.36593	 40.459260	
4.4375	 40.449678	
4.50907	 40.450213	
4.58065	 40.457746	
4.65222	 40.278062	
4.72379	 40.318026	
4.79536	 40.283047	
4.86694	 40.231726	
4.93851	 40.235486	
5.01008	 36.605376	
5.08165	 34.627054	
5.15323	 32.964243	
5.2248	 31.235138	
5.29637	 31.265609	
5.36794	 29.949989	
5.43952	 27.951043	
5.51109	 27.877255	
5.58266	 27.640059	
5.65423	 27.575749	
5.72581	 27.621988	
5.79738	 27.581974	
5.86895	 27.445461	
5.94052	 27.442821	
6.0121	 27.296076	
6.08367	 27.300790	
6.15524	 27.335794	
6.22681	 27.372215	
6.29839	 27.491575	
6.36996	 27.435772	
6.44153	 27.506252	
6.5131	 27.578135	
6.58468	 27.576174	
6.65625	 27.763000	
6.72782	 27.756039	
6.7994	 27.669881	
6.87097	 27.681391	
6.94254	 27.777998	
7.01411	 27.799267	
7.08569	 27.752934	
7.15726	 27.797622	
7.22883	 27.817073	
7.3004	 27.728119	
7.37198	 27.726230	
7.44355	 27.676982	
7.51512	 27.689895	
7.58669	 27.591012	
7.65827	 27.642453	
7.72984	 27.523972	
7.80141	 27.447196	
7.87298	 27.460789	
7.94456	 27.563924	
8.01613	 27.673421	
8.0877	 27.620851	
8.15927	 27.658357	
8.23085	 27.661558	
8.30242	 27.667585	
8.37399	 27.658597	
8.44556	 27.660628	
8.51714	 27.672396	
8.58871	 27.710810	
8.66028	 27.718072	
8.73185	 27.684302	
8.80343	 27.728801	
8.875	 27.731114	
8.94657	 27.684802	
9.01815	 27.598369	
9.08972	 27.543342	
9.16129	 27.508177	
9.23286	 27.504901	
9.30444	 27.514740	
9.37601	 27.507520	
9.44758	 27.561532	
9.51915	 27.667968	
9.59073	 27.774634	
9.6623	 27.740800	
9.73387	 27.747582	
9.80544	 27.736129	
9.87702	 27.720333	
9.94859	 27.754414	
10.0202	 27.872749	
10.0917	 27.997302	
10.1633	 28.282697	
10.2349	 28.408821	
10.3065	 28.604593	
10.378	 30.099043	
10.4496	 30.202597	
10.5212	 31.905701	
10.5927	 31.819236	
10.6643	 34.953928	
10.7359	 37.936395	
10.8075	 37.988826	
10.879	 41.164688	
10.9506	 44.065456	
11.0222	 44.048585	
11.0937	 44.103113	
11.1653	 43.805017	
